# xmcd
#
# Track frame offsets: 
#        150
#        20460
#        35530
#        54202
#        72522
#        85715
#        107167
#        129535
#        148810
#        167577
#        189077
#        206157
#        229122
#        250187
#
# Disc length: 4352 seconds
#
# Revision: 0
# Processed by: cddbd v1.5.2PL0 Copyright (c) Steve Scherf et al.
# Submitted via: ExactAudioCopy v0.99pb4
#
DISCID=bd10fe0e
DTITLE=Jewel - This Way
DYEAR=1900
DGENRE=Country
TTITLE0=Standing Still
TTITLE1=Jesus Loves You
TTITLE2=Everybody Needs Someone Sometime
TTITLE3=Break Me
TTITLE4=Do You Want To Play?
TTITLE5=Till We Run Out Of Road
TTITLE6=Serve The Ego
TTITLE7=This Way
TTITLE8=Cleveland
TTITLE9=I Won't Walk Away
TTITLE10=Love Me, Just Leave Me Alone
TTITLE11=The New Wild West
TTITLE12=Grey Matter
TTITLE13=Sometimes It Be That Way
EXTD=
EXTT0=
EXTT1=
EXTT2=
EXTT3=
EXTT4=
EXTT5=
EXTT6=
EXTT7=
EXTT8=
EXTT9=
EXTT10=
EXTT11=
EXTT12=
EXTT13=
PLAYORDER=
